<svg width="44" height="44" viewBox="0 0 44 44" fill="none" xmlns="http://www.w3.org/2000/svg">
<rect width="44" height="44" rx="5" fill="#171717"/>
<path d="M10 11.719C10 10.7695 10.789 10 11.7625 10H32.2375C33.211 10 34 10.7695 34 11.719V32.281C34 33.2305 33.211 34 32.2375 34H11.7625C10.789 34 10 33.2305 10 32.281V11.719ZM17.4145 30.091V19.2535H13.813V30.091H17.4145ZM15.6145 17.773C16.87 17.773 17.6515 16.942 17.6515 15.901C17.629 14.8375 16.8715 14.029 15.6385 14.029C14.4055 14.029 13.6 14.839 13.6 15.901C13.6 16.942 14.3815 17.773 15.5905 17.773H15.6145ZM22.9765 30.091V24.0385C22.9765 23.7145 23.0005 23.3905 23.0965 23.1595C23.356 22.513 23.9485 21.8425 24.9445 21.8425C26.248 21.8425 26.7685 22.8355 26.7685 24.2935V30.091H30.37V23.875C30.37 20.545 28.594 18.997 26.224 18.997C24.313 18.997 23.4565 20.047 22.9765 20.7865V20.824H22.9525C22.9605 20.8115 22.9685 20.799 22.9765 20.7865V19.2535H19.3765C19.4215 20.2705 19.3765 30.091 19.3765 30.091H22.9765Z" fill="#FAFAFA"/>
</svg>
